<?xml version="1.0" encoding="utf-8"?>
<!-- Generator: Adobe Illustrator 15.0.3, SVG Export Plug-In . SVG Version: 6.00 Build 0)  -->
<!DOCTYPE svg PUBLIC "-//W3C//DTD SVG 1.1//EN" "http://www.w3.org/Graphics/SVG/1.1/DTD/svg11.dtd">
<svg version="1.1" id="Ebene_1" xmlns="http://www.w3.org/2000/svg" xmlns:xlink="http://www.w3.org/1999/xlink" x="0px" y="0px"
	 width="240px" height="260px" viewBox="0 0 240 260" enable-background="new 0 0 240 260" xml:space="preserve">
<g>
	<polyline fill="none" stroke="#000000" stroke-width="1.5" points="137.364,211.568 137.364,224.913 127.364,224.913 
		127.364,211.329 	"/>
	<path fill="none" stroke="#000000" stroke-width="1.5" d="M118.326,201.451c-0.814,6.012-7.195,10.693-14.938,10.693
		c-7.082,0-13.021-3.914-14.609-9.18"/>
	<path fill="none" stroke="#000000" stroke-width="1.5" d="M146.573,195.472c0.758,1.437,1.176,3.014,1.176,4.67
		c0,6.626-6.707,12-14.977,12c-7.689,0-14.025-4.646-14.877-10.624"/>
	<path fill="none" stroke="#000000" stroke-width="1.5" d="M151.315,138.516c-2.236,1.979-17.004,14.552-47.762,29.986
		c-61.908,31.065-81.119,56.408-81.119,56.408h-2.57v0.002c0,0-27.5-92.391,77.084-139.742"/>
	<g id="Gefieder">
		<g id="Feder_15_">
			<path fill="none" stroke="#000000" stroke-width="1.5" d="M112.983,182.241c0,0,0.25,6.897-0.201,9.138
				c-0.637,3.144-4.148,9.844-7.764,10.214c-3.701,0.378-7.068-7.308-7.764-10.214c-0.619-2.606-0.236-7.138-0.236-7.138"/>
			<line fill="none" stroke="#000000" stroke-width="1.5" x1="105.018" y1="174.363" x2="105.018" y2="201.592"/>
		</g>
		<g id="Feder_14_">
			<path fill="none" stroke="#000000" stroke-width="1.5" d="M97.02,184.241c0,0,0.213,4.897-0.238,7.138
				c-0.637,3.144-4.148,9.844-7.764,10.214c-3.701,0.378-7.068-7.308-7.764-10.214c-0.619-2.606-0.236-11.138-0.236-11.138"/>
			<line fill="none" stroke="#000000" stroke-width="1.5" x1="89.018" y1="176.101" x2="89.018" y2="201.592"/>
		</g>
		<g id="Feder_19_">
			<path fill="none" stroke="#000000" stroke-width="1.5" d="M81.026,180.616c0.035,1.71,0.151,8.798-0.244,10.763
				c-0.637,3.144-4.148,9.844-7.764,10.214c-3.701,0.378-7.272-8.449-7.968-11.355"/>
			<line fill="none" stroke="#000000" stroke-width="1.5" x1="73.018" y1="185.28" x2="73.018" y2="201.592"/>
		</g>
		<g id="Feder_20_">
			<path fill="none" stroke="#000000" stroke-width="1.5" d="M64.661,190.487c-0.876,3.306-4.213,9.354-7.644,9.705
				c-1.314,0.135-2.588-0.75-3.715-2.076"/>
			<line fill="none" stroke="#000000" stroke-width="1.5" x1="57.018" y1="195.547" x2="57.018" y2="200.192"/>
		</g>
		<g id="Feder_13_">
			<path fill="none" stroke="#000000" stroke-width="1.5" d="M128.983,181.44c0,0,0.25,6.898-0.201,9.139
				c-0.637,3.144-4.148,9.844-7.766,10.214c-3.699,0.378-7.066-7.309-7.762-10.214c-0.619-2.606-0.273-9.139-0.273-9.139"/>
			<line fill="none" stroke="#000000" stroke-width="1.5" x1="121.016" y1="173.562" x2="121.016" y2="200.794"/>
		</g>
		<g id="Feder_12_">
			<path fill="none" stroke="#000000" stroke-width="1.5" d="M144.983,178.241c0,0,0.25,6.897-0.201,9.138
				c-0.637,3.144-4.148,9.844-7.766,10.214c-3.699,0.378-7.066-7.308-7.762-10.214c-0.619-2.606-0.273-9.138-0.273-9.138"/>
			<line fill="none" stroke="#000000" stroke-width="1.5" x1="137.016" y1="170.363" x2="137.016" y2="197.592"/>
		</g>
		<g id="Feder_16_">
			<path fill="none" stroke="#000000" stroke-width="1.5" d="M160.781,173.64c0,0,0.451,6.898,0,9.139
				c-0.637,3.144-4.148,9.844-7.766,10.214c-3.699,0.378-7.066-7.309-7.762-10.214c-0.619-2.606-0.273-9.139-0.273-9.139"/>
			<line fill="none" stroke="#000000" stroke-width="1.5" x1="153.016" y1="165.762" x2="153.016" y2="192.995"/>
		</g>
		<g id="Feder_17_">
			<path fill="none" stroke="#000000" stroke-width="1.5" d="M176.983,164.241c0,0,0.25,8.897-0.201,11.138
				c-0.637,3.144-4.148,9.844-7.766,10.214c-3.699,0.378-7.066-7.308-7.762-10.214c-0.619-2.606-0.271-9.034-0.271-9.034"/>
			<line fill="none" stroke="#000000" stroke-width="1.5" x1="169.016" y1="158.363" x2="169.016" y2="185.592"/>
		</g>
		<g id="Feder_18_">
			<path fill="none" stroke="#000000" stroke-width="1.5" d="M192.781,142.241c0,0,0.451,18.897,0,21.138
				c-0.637,3.144-4.148,9.844-7.766,10.214c-3.699,0.378-7.066-7.308-7.762-10.214c-0.311-2.083-0.35-6.624-0.35-6.624"/>
			<line fill="none" stroke="#000000" stroke-width="1.5" x1="185.016" y1="146.363" x2="185.016" y2="173.592"/>
		</g>
		<g id="Feder_11_">
			<path fill="none" stroke="#000000" stroke-width="1.5" d="M120.994,159.171c0.031,2.462,0.146,12.634-0.248,14.599
				c-0.637,3.145-4.146,9.845-7.764,10.214c-3.699,0.379-7.068-7.308-7.762-10.214c-0.113-0.476-0.236-5.082-0.279-5.756"/>
			<line fill="none" stroke="#000000" stroke-width="1.5" x1="112.983" y1="163.606" x2="112.983" y2="183.984"/>
		</g>
		<g id="Feder_10_">
			<path fill="none" stroke="#000000" stroke-width="1.5" d="M104.942,168.018c-0.029,0.704-0.109,5.316-0.195,5.75
				c-0.635,3.145-4.146,9.845-7.764,10.214c-2.398,0.246-5.934-5.146-7.414-8.18"/>
			<line fill="none" stroke="#000000" stroke-width="1.5" x1="96.983" y1="171.859" x2="96.983" y2="183.984"/>
		</g>
		<g id="Feder_9_">
			<path fill="none" stroke="#000000" stroke-width="1.5" d="M137.016,149.008c0,0,0.18,22.522-0.271,24.762
				c-0.637,3.145-4.148,9.845-7.764,10.214c-3.699,0.379-7.068-7.308-7.762-10.214c-0.545-2.281-0.318-12.177-0.252-14.6"/>
			<line fill="none" stroke="#000000" stroke-width="1.5" x1="128.983" y1="154.409" x2="128.983" y2="183.984"/>
		</g>
		<g id="Feder_8_">
			<path fill="none" stroke="#000000" stroke-width="1.5" d="M152.744,154.632c0,0,0.453,16.898,0,19.138
				c-0.637,3.145-4.148,9.845-7.764,10.214c-3.699,0.379-7.068-7.308-7.762-10.214c-0.621-2.605-0.205-24.762-0.205-24.762"/>
			<line fill="none" stroke="#000000" stroke-width="1.5" x1="144.983" y1="156.754" x2="144.983" y2="183.984"/>
		</g>
		<g id="Feder_7_">
			<path fill="none" stroke="#000000" stroke-width="1.5" d="M152.944,146.363c0,0,0.254,6.418-0.199,8.657
				c-0.637,3.145-4.148,9.845-7.764,10.214c-3.699,0.379-7.068-7.308-7.762-10.214c-0.123-0.514-0.162-5.273-0.205-6.014"/>
			<line fill="none" stroke="#000000" stroke-width="1.5" x1="144.983" y1="144.006" x2="144.983" y2="165.236"/>
		</g>
		<g id="Feder_6_">
			<line fill="none" stroke="#000000" stroke-width="1.5" x1="128.983" y1="154.409" x2="128.983" y2="165.236"/>
		</g>
		<g id="Feder_5_">
			<path fill="none" stroke="#000000" stroke-width="1.5" d="M168.744,153.882c0,0,0.453,6.898,0,9.138
				c-0.637,3.145-4.148,9.845-7.764,10.214c-3.699,0.379-7.068-7.308-7.762-10.214c-0.621-2.605-0.238-9.029-0.238-9.029"/>
			<line fill="none" stroke="#000000" stroke-width="1.5" x1="160.983" y1="142.006" x2="160.983" y2="173.236"/>
		</g>
		<g id="Feder_4_">
			<path fill="none" stroke="#000000" stroke-width="1.5" d="M184.744,145.882c0,0,0.453,6.898,0,9.138
				c-0.637,3.145-4.148,9.845-7.764,10.214c-3.699,0.379-7.068-7.308-7.762-10.214c-0.621-2.605-0.236-9.138-0.236-9.138"/>
			<line fill="none" stroke="#000000" stroke-width="1.5" x1="176.983" y1="138.006" x2="176.983" y2="165.236"/>
		</g>
		<g id="Feder">
			<path fill="none" stroke="#000000" stroke-width="1.5" d="M176.76,127.204c0.078,2.74,0.385,14.594-0.016,16.572
				c-0.637,3.145-4.148,9.845-7.764,10.215c-3.699,0.378-7.068-7.309-7.762-10.215c-0.373-1.564-0.385-4.547-0.332-6.678"/>
			<line fill="none" stroke="#000000" stroke-width="1.5" x1="168.983" y1="133.616" x2="168.983" y2="153.993"/>
		</g>
		<g id="Feder_3_">
			<path fill="none" stroke="#000000" stroke-width="1.5" d="M160.887,137.098c0,0,0.311,4.438-0.143,6.678
				c-0.637,3.145-4.148,9.845-7.764,10.215c-3.197,0.325-6.809-6.554-7.998-9.984"/>
			<line fill="none" stroke="#000000" stroke-width="1.5" x1="152.983" y1="138.475" x2="152.983" y2="153.993"/>
		</g>
		<g id="Feder_1_">
			<path fill="none" stroke="#000000" stroke-width="1.5" d="M192.744,130.638c0,0,0.453,10.898,0,13.138
				c-0.637,3.145-4.148,9.845-7.764,10.215c-3.699,0.378-7.068-7.309-7.762-10.215c-0.621-2.605-0.459-16.572-0.459-16.572"/>
			<line fill="none" stroke="#000000" stroke-width="1.5" x1="184.983" y1="119.218" x2="184.983" y2="153.993"/>
		</g>
		<g id="Feder_2_">
			<path fill="none" stroke="#000000" stroke-width="1.5" d="M204.477,150.896c-0.883,1.664-2.383,3.053-3.494,3.095
				c-3.717,0.14-7.068-7.309-7.762-10.215c-0.621-2.605-0.088-9.854,0-13.138"/>
			<line fill="none" stroke="#000000" stroke-width="1.5" x1="200.983" y1="114.76" x2="200.983" y2="153.993"/>
		</g>
		<g>
			<path fill="none" stroke="#000000" stroke-width="1.5" d="M183.928,92.672c0,0,31.412,11.804,9.018,39.538
				c0,0-6.99-7.888-9.018-16.342"/>
			<path fill="none" stroke="#000000" stroke-width="1.5" d="M192.946,132.638c0.229-8.59,1.549-26.682-7.354-32.058"/>
		</g>
		<path fill="none" stroke="#000000" stroke-width="1.5" stroke-miterlimit="10" d="M185.59,52.331
			c5.631-16.769,2.334-25.789,2.334-25.789"/>
		<path fill="none" stroke="#000000" stroke-width="1.5" d="M55.039,200.144c-7.656,7.748-17.379,34.484-17.379,34.484
			c0-6.482,24.775-33.448,24.775-33.448"/>
		<path fill="none" stroke="#000000" stroke-width="1.5" d="M45.52,203.68c0,0-8.83,21.526-8.83,30.948"/>
		<path fill="none" stroke="#000000" stroke-width="1.5" d="M31.783,214.81c0,8.637,3.934,19.818,3.934,19.818h2.916
			c16.203-18.796,34.348-32.393,34.348-32.393"/>
		<path fill="none" stroke="#000000" stroke-width="1.5" d="M37.487,210.251c-1.923,6.479-1.77,24.377-1.77,24.377"/>
	</g>
	<path fill="none" stroke="#000000" stroke-width="1.5" d="M131.586,23.369c7.656-3.162,16.453-4.956,26.277-4.956
		c50,0,60,51.5,60,73.5c0,136.975-156.488,109.495-166.498,107.597"/>
	<path fill="none" stroke="#000000" stroke-width="1.5" d="M120.061,124.063l-0.697-0.65c-32.128-27.328-28.798-71.565-0.486-92.827
		"/>
	<path fill="none" stroke="#000000" stroke-width="1.5" d="M192.983,58.113c0,0,8,4.978,8,20.575l0,0
		c0,12.734-5.332,18.391-7.293,20.038"/>
	<g id="Augen">
		<path fill="none" stroke="#000000" stroke-width="1.5" d="M132.217,132.707c5.457,3.669,12.027,5.81,19.098,5.81
			c18.928,0,34.275-15.344,34.275-34.273c0-5.761-1.43-11.18-3.947-15.937"/>
		<path fill="none" stroke="#000000" stroke-width="1.5" d="M118.699,42.583c-0.524,3.521-0.215,6.913,0.344,10.552
			c1.393,9.073,9.705,19.278,16.74,25.554c-7.037,6.276-14.908,13.112-16.74,25.555c-0.555,3.766-0.884,7.46-0.174,11.065"/>
		<path fill="none" stroke="#000000" stroke-width="1.5" d="M181.635,69.083c2.523-4.761,3.955-10.185,3.955-15.949
			c0-18.93-15.348-34.273-34.275-34.273c-2.408,0-4.76,0.248-7.029,0.722"/>
		<g id="Ohr_1_">
			<path fill="none" d="M133.311,31.35c0.068-11.64-10.348-20.096-19.006-15.689c-11.514,5.857-4.797,17.609-4.797,17.609
				s15.5-12.237,9.006,9.906l9.154-0.848L133.311,31.35z"/>
			<path fill="none" stroke="#000000" stroke-width="1.5" d="M133.311,31.35c0.068-11.64-10.348-20.096-19.006-15.689
				c-11.514,5.857-4.797,17.609-4.797,17.609s15.219-13.623,9.006,9.906"/>
			<path fill="none" stroke="#000000" stroke-width="1.5" d="M129.186,35.562c0.051-5.518-4.18-18.563-12.057-16.903
				c-7.711,1.626-7.623,14.611-7.623,14.611"/>
			<path fill="none" stroke="#000000" stroke-width="1.5" d="M123.772,46.51c4.637-24.394-8.842-26.098-14.264-13.24"/>
		</g>
		<g id="Ohr_2_">
			<path fill="none" d="M133.311,126.258c0.068,11.64-10.348,20.096-19.006,15.69c-11.514-5.858-4.797-17.61-4.797-17.61
				s15.5,12.238,9.006-9.906l9.547,1.84L133.311,126.258z"/>
			<path fill="none" stroke="#000000" stroke-width="1.5" d="M133.311,126.258c0.068,11.64-10.348,20.096-19.006,15.69
				c-11.514-5.858-4.797-17.61-4.797-17.61s14.264,13.32,9.006-9.906"/>
			<path fill="none" stroke="#000000" stroke-width="1.5" d="M129.186,122.048c0.051,5.518-4.18,18.564-12.057,16.904
				c-7.711-1.626-7.623-14.612-7.623-14.612"/>
			<path fill="none" stroke="#000000" stroke-width="1.5" d="M123.772,111.098c4.637,24.395-8.842,26.099-14.264,13.24"/>
		</g>
		<circle fill="none" stroke="#000000" stroke-width="1.5" cx="151.317" cy="53.132" r="15.584"/>
		<circle fill="none" stroke="#000000" stroke-width="1.5" cx="151.317" cy="53.134" r="22.128"/>
		<circle fill="none" stroke="#000000" stroke-width="1.5" cx="151.317" cy="104.243" r="15.584"/>
		<circle fill="none" stroke="#000000" stroke-width="1.5" cx="151.317" cy="104.243" r="22.128"/>
		<circle stroke="#000000" stroke-width="0.75" cx="151.317" cy="104.243" r="9.958"/>
		<circle stroke="#000000" stroke-width="0.75" cx="151.317" cy="53.132" r="9.958"/>
		<g>
			<path fill="none" stroke="#000000" stroke-width="1.5" d="M123.824,111.087c3.061,12.337,14.209,21.478,27.492,21.479
				c15.643,0,28.326-12.68,28.326-28.323c0-5.611-1.639-10.833-4.459-15.227c-0.275,0.007-0.557,0.022-0.826,0.022
				c-3.27,0-12.027-1.885-12.027-5.156V73.49c0-3.271,8.758-5.153,12.027-5.153c0.27,0,0.553,0.016,0.828,0.023
				c2.818-4.393,4.457-9.613,4.457-15.224c0-15.644-12.684-28.326-28.326-28.326c-13.363-0.001-24.562,9.253-27.545,21.7"/>
			<path fill="none" stroke="#000000" stroke-width="1.5" d="M196.696,78.688c0-5.969-12.402-10.091-21.51-10.328
				c-0.275-0.008-0.559-0.023-0.828-0.023c-3.27,0-12.027,1.882-12.027,5.153v10.393c0,3.271,8.758,5.156,12.027,5.156
				c0.27,0,0.551-0.016,0.826-0.022C184.291,88.779,196.696,84.656,196.696,78.688z"/>
		</g>
	</g>
	<path fill="none" stroke="#000000" stroke-width="1.5" d="M168.752,75.434c0-2.048,5.484-3.228,7.533-3.228
		c5.736,0,13.986,2.63,13.986,6.483l0,0c0,3.851-8.25,6.482-13.986,6.482c-2.047,0-7.533-1.18-7.533-3.229V75.434z"/>
	<polyline fill="none" stroke="#000000" stroke-width="1.5" points="109.364,211.15 109.364,224.913 99.364,224.913 99.364,211.707 
			"/>
	<path fill="none" stroke="#000000" stroke-width="1.5" d="M100.481,97.25c-88.617,37.388-80.617,127.662-80.617,127.662"/>
	<path fill="none" stroke="#000000" stroke-width="1.5" d="M105.018,106.623c-88.191,46.01-85.154,118.29-85.154,118.29"/>
	<path fill="none" stroke="#000000" stroke-width="1.5" d="M137.463,135.592c-119.803,62.014-115.1,89.32-115.1,89.32"/>
	<path fill="none" stroke="#000000" stroke-width="1.5" d="M201.912,40.104c0,0,3.219,13.028-18.348,24.604"/>
	<path fill="none" stroke="#000000" stroke-width="1.5" d="M199.565,68.336c0,0,11.936-8.004,9.818-16.006"/>
	<path fill="none" stroke="#000000" stroke-width="1.5" d="M200.983,75.26c0,0,10.924-1.233,13.574-8.534"/>
	<path fill="none" stroke="#000000" stroke-width="1.5" d="M200.983,85.172c0,0,13.574,0,16.871,8.326"/>
	<path fill="none" stroke="#000000" stroke-width="1.5" d="M198.557,91.8c0,0,14.768,3.314,13.006,42.838"/>
	<path fill="none" stroke="#000000" stroke-width="1.5" d="M109.364,224.913c0,0-0.916,8.396,7.084,7.716
		c8.834-0.752,9.535-2.208,13.916-2.216c8.57-0.015,3.623,14,3.623,14s0.977-9.267-4.404-9.267c-5.438,0-11.219,5.219-21.096,3.641
		c-5.035-0.805-11.002-8.214-11.002-8.214"/>
	<path fill="none" stroke="#000000" stroke-width="1.5" d="M137.364,224.913c0,0,0.264,9.624,8.818,8.876
		c8.832-0.774,11.805-3.166,16.182-3.376c9.295-0.446,1.654,14.97,1.654,14.97s0.596-9.508-4.787-9.508
		c-5.438,0-13.328,7.452-23.824,0.374"/>
	<path fill="none" stroke="#000000" stroke-width="1.5" d="M99.364,224.913c0,0,0.043,8.494-7.5,8.75
		c-7.377,0.25-18.432-8.559-22.25-0.25c-2.125,4.624,3.404,11.75,3.404,11.75s0-9.376,5.346-9.25c4.459,0.104,8.996,4.134,13.5,4.25
		c4.875,0.124,10.496-4.683,10.496-4.683"/>
	<path fill="none" stroke="#000000" stroke-width="1.5" d="M106.662,238.243c0,0-7.299,7.14-16.824,6.245
		c-4.145-0.39-8.857-6.245-13.031-4.096c-1.371,0.706-3.791,4.772-3.791,4.772"/>
	<path fill="none" stroke="#000000" stroke-width="1.5" d="M133.987,244.413c0,0-2.365-5.036-6.623-4.208
		c-2.91,0.563-7.193,3.412-14.381,3.62c-3.619,0.104-10.623-2.681-10.623-2.681"/>
	<path fill="none" stroke="#000000" stroke-width="1.5" d="M164.037,244.413c0,0-2.006-5.5-7.549-4.062
		c-3.168,0.822-5.172,2.729-11.541,3.23c-2.385,0.188-10.141-2.104-10.141-2.104"/>
	<line fill="none" stroke="#000000" stroke-width="1.5" x1="127.364" y1="230.772" x2="127.364" y2="224.913"/>
	<path fill="none" stroke="#000000" stroke-width="1.5" d="M78.508,117.336c-11.857,4.736-17.43,4.712-17.43,4.712
		s1.355-13.874,37.623-30.248"/>
	<path fill="none" stroke="#000000" stroke-width="1.5" d="M80.59,130.096c-12.643,6.5-15.611,4.112-15.611,4.112
		c0-12.36,37.584-32.124,37.584-32.124"/>
	<path fill="none" stroke="#000000" stroke-width="1.5" d="M117.045,121.35c-36.064,27.42-47.582,25.73-47.582,25.73
		s-4.484-11.488,38.93-35.378"/>
	<path fill="none" stroke="#000000" stroke-width="1.5" d="M115.102,142.316c-20.58,13.25-34.119,10.316-34.119,10.316
		s0.283-4.09,7.416-12.274"/>
	<path fill="none" stroke="#000000" stroke-width="1.5" d="M144.983,137.659c-20.555,19.876-41.105,16.226-41.105,16.226
		s-0.486-3.854,10.428-11.934"/>
	<path fill="none" stroke="#000000" stroke-width="1.5" d="M66.787,102.411c2.104,0.712,8.008,2.075,15.123-1.83"/>
	<path fill="none" stroke="#000000" stroke-width="1.5" d="M122.56,93.499c-11.941,4.862-24.614-4.84-24.614-4.84
		c0-4.466,8.897-9.988,13.363-9.991c5.03-0.003,13.87,9.991,13.87,9.991"/>
	<line fill="none" stroke="#000000" stroke-width="1.5" x1="97.392" y1="69.132" x2="125.649" y2="69.132"/>
	<line fill="none" stroke="#000000" stroke-width="1.5" x1="97.947" y1="88.659" x2="125.18" y2="88.659"/>
	<line fill="none" stroke="#000000" stroke-width="1.5" x1="111.31" y1="78.667" x2="135.783" y2="78.688"/>
	<path fill="none" stroke="#000000" stroke-width="1.5" d="M122.043,62.25c-12.212-3.533-24.651,6.331-24.651,6.331
		c0,4.466,9.452,10.09,13.918,10.087c4.918-0.003,14.817-9.951,14.817-9.951"/>
	<path fill="none" stroke="#000000" stroke-width="1.5" d="M106.254,108.613c0,0,4.197-10.104,16.306-15.114"/>
	<path fill="none" stroke="#000000" stroke-width="1.5" d="M112.983,117.264l4.66-6.852"/>
	<path fill="none" stroke="#000000" stroke-width="1.5" d="M107.561,135.613c-77.529,43.766-86.697,89.3-86.697,89.3
		s-0.23-55.763,92.119-107.648"/>
	<line fill="none" stroke="#000000" stroke-width="1.5" x1="118.43" y1="46.51" x2="112.23" y2="36.457"/>
	<line fill="none" stroke="#000000" stroke-width="1.5" x1="105.024" y1="45.699" x2="117.689" y2="46.51"/>
	<path fill="none" stroke="#000000" stroke-width="1.5" d="M105.024,45.699c0,0,2.393,8.051,16.17,16.073"/>
	<path fill="none" stroke="#000000" stroke-width="1.5" d="M119.043,53.134c-5.539,0.097-13.078-6.624-13.078-6.624"/>
	<line fill="none" stroke="#000000" stroke-width="1.5" x1="106.254" y1="108.613" x2="117.643" y2="110.413"/>
	<path fill="none" stroke="#000000" stroke-width="1.5" d="M119.516,101.633c-3.249,0.476-13.262,6.979-13.262,6.979"/>
	<path fill="none" stroke="#000000" stroke-width="1.5" d="M137.006,149.254c-0.043,1.257-0.182,5.37-0.262,5.768
		c-0.637,3.145-4.148,9.845-7.764,10.214c-1.646,0.168-3.229-1.262-4.539-3.157l-2.033-3.739"/>
</g>
</svg>
