<?xml version="1.0" standalone="no"?>
<!DOCTYPE svg PUBLIC "-//W3C//DTD SVG 20010904//EN"
 "http://www.w3.org/TR/2001/REC-SVG-20010904/DTD/svg10.dtd">
<svg version="1.0" xmlns="http://www.w3.org/2000/svg"
 width="700.000000pt" height="700.000000pt" viewBox="0 0 700.000000 700.000000"
 preserveAspectRatio="xMidYMid meet">
<metadata>
Created by potrace 1.11, written by Peter Selinger 2001-2013
</metadata>
<g transform="translate(0.000000,700.000000) scale(0.100000,-0.100000)"
fill="#000000" stroke="none">
<path d="M4799 6826 c-62 -16 -124 -55 -182 -111 l-48 -46 -202 36 c-111 20
-213 38 -227 41 -14 2 -47 7 -75 10 -27 3 -75 9 -105 14 -30 5 -77 12 -105 15
-27 3 -70 8 -95 11 -25 3 -63 7 -85 9 -49 4 -315 5 -370 1 -52 -4 -191 -17
-235 -22 -98 -11 -139 -16 -175 -21 -65 -8 -77 -10 -135 -17 -65 -9 -68 -9
-235 -36 -164 -26 -177 -28 -250 -41 -33 -6 -71 -13 -85 -15 -14 -3 -60 -11
-103 -20 -42 -8 -90 -17 -105 -20 -15 -2 -61 -11 -102 -19 -41 -9 -86 -17
-100 -20 -14 -3 -71 -14 -127 -25 l-103 -21 -32 24 c-56 42 -148 83 -273 122
-66 20 -167 53 -225 73 -78 26 -123 36 -173 36 -65 1 -70 -1 -97 -31 -51 -56
-68 -153 -65 -355 6 -316 13 -368 90 -653 57 -211 53 -294 -30 -645 -24 -101
-25 -112 -40 -265 -23 -244 -24 -655 0 -795 2 -14 6 -42 9 -62 15 -98 35 -165
101 -338 109 -285 121 -320 140 -426 27 -149 10 -355 -56 -672 -11 -53 -21
-108 -23 -122 -3 -14 -8 -45 -11 -70 -4 -25 -9 -54 -11 -65 -7 -37 -7 -230 0
-275 6 -39 27 -151 42 -229 59 -297 178 -598 292 -741 42 -52 131 -140 143
-140 4 0 14 -6 21 -13 24 -23 162 -85 248 -111 114 -34 297 -72 435 -90 22 -3
56 -7 75 -10 19 -3 82 -12 140 -21 211 -30 436 -78 454 -96 6 -5 16 -9 24 -9
15 0 120 -39 192 -72 25 -11 99 -45 165 -75 66 -30 134 -61 150 -68 125 -56
280 -97 370 -97 118 0 218 31 517 157 101 43 197 83 213 90 36 15 124 44 151
49 10 3 42 10 69 16 63 15 69 16 128 24 27 4 56 9 65 11 10 1 42 6 73 9 31 4
65 8 75 10 11 2 48 7 84 10 103 11 164 19 235 32 10 2 37 6 60 10 59 8 190 47
265 79 225 94 400 295 520 595 56 143 118 359 135 474 3 21 7 41 9 45 2 3 7
26 10 51 4 25 13 83 20 130 22 147 9 347 -39 610 -3 14 -7 45 -11 70 -3 25 -7
52 -9 60 -17 66 -23 297 -10 385 9 64 52 242 65 264 5 10 11 29 14 42 3 13 25
85 51 159 44 132 73 230 81 280 2 14 6 35 9 47 27 119 27 864 0 1023 -2 14 -7
48 -10 75 -9 79 -32 181 -47 208 -7 14 -62 78 -123 143 -60 64 -123 131 -139
148 -44 47 -262 280 -342 365 -81 86 -108 115 -272 291 -65 68 -133 141 -152
161 -19 20 -62 65 -94 100 -33 35 -111 120 -175 187 -64 68 -130 139 -147 158
-18 19 -33 34 -35 33 -2 0 -25 -6 -50 -13z"/>
</g>
</svg>
